<?xml version="1.0" standalone="no"?>
<!DOCTYPE svg PUBLIC "-//W3C//DTD SVG 20010904//EN"
 "http://www.w3.org/TR/2001/REC-SVG-20010904/DTD/svg10.dtd">
<svg version="1.0" xmlns="http://www.w3.org/2000/svg"
 width="406.000000pt" height="408.000000pt" viewBox="0 0 406.000000 408.000000"
 preserveAspectRatio="xMidYMid meet">

<g transform="translate(0.000000,408.000000) scale(0.100000,-0.100000)"
fill="#000000" stroke="none">
<path d="M2633 3358 c-12 -13 -23 -34 -25 -48 -5 -36 -108 -85 -226 -105 -101
-18 -122 -16 -122 14 0 24 -54 70 -90 78 -16 3 -43 20 -61 39 -38 39 -59 42
-117 14 -45 -22 -62 -45 -62 -83 0 -15 -9 -31 -24 -41 -14 -8 -33 -39 -44 -68
l-20 -53 -53 -7 c-30 -3 -109 -11 -176 -17 -147 -13 -176 -22 -171 -54 2 -18
9 -22 38 -21 49 1 285 22 341 30 l46 6 13 -46 c7 -26 10 -50 6 -53 -4 -4 -50
-10 -104 -14 -258 -20 -401 -36 -420 -48 -6 -4 -31 -48 -55 -98 -24 -51 -55
-102 -70 -113 -33 -26 -33 -33 -6 -59 28 -26 20 -67 -26 -141 -35 -54 -44 -97
-24 -117 11 -11 11 -14 9 -233 -2 -201 12 -317 55 -445 49 -149 103 -250 167
-311 58 -56 73 -63 223 -94 94 -19 116 -20 355 -11 273 9 288 12 449 81 68 30
143 125 134 170 -3 16 2 50 10 77 36 116 46 224 37 428 -7 155 -6 169 11 186
10 10 16 24 14 31 -3 7 -9 51 -14 98 -5 47 -12 93 -16 103 -6 14 -2 20 13 24
22 5 36 29 26 44 -8 14 30 70 70 102 21 16 48 54 66 92 24 50 44 75 85 106 45
34 65 57 65 74 0 15 -38 35 -66 35 -20 0 -90 12 -157 26 -85 18 -170 28 -281
32 l-160 7 -8 30 c-4 17 -5 49 -2 71 l6 41 81 16 c45 9 98 19 118 22 20 3 72
23 116 44 44 22 87 39 94 39 48 -3 70 4 85 27 49 75 -72 159 -133 93z m-613
-93 c0 -8 -4 -15 -10 -15 -5 0 -10 7 -10 15 0 8 5 15 10 15 6 0 10 -7 10 -15z
m544 -374 c11 -17 -25 -21 -57 -7 l-32 14 42 1 c23 1 44 -3 47 -8z m-635 -25
c-11 -11 -121 -24 -153 -19 -64 10 -27 23 66 23 50 0 89 -2 87 -4z m871 -16
c12 -7 12 -12 3 -21 -9 -9 -16 -9 -28 1 -29 24 -9 42 25 20z m-1369 -45 c-50
-29 -57 -28 -35 3 10 15 25 22 47 22 l32 0 -44 -25z m1259 -92 c0 -4 -14 -22
-32 -40 -21 -22 -41 -33 -60 -33 -37 0 -35 9 9 47 34 29 83 44 83 26z m-1315
-213 c-3 -5 -15 -10 -26 -10 -10 0 -19 5 -19 10 0 6 12 10 26 10 14 0 23 -4
19 -10z m-64 -61 c24 -24 23 -25 -14 -34 -28 -8 -31 -4 -21 33 8 27 9 27 35 1z
m1223 -21 c3 -24 8 -122 11 -218 4 -96 9 -228 11 -293 5 -125 -7 -213 -48
-347 -40 -132 -60 -151 -216 -206 -75 -27 -84 -28 -330 -31 -198 -3 -266 -1
-315 11 -34 8 -77 18 -95 21 -17 4 -42 15 -55 26 -12 10 -35 29 -51 41 -35 27
-116 190 -152 309 -28 95 -38 206 -39 439 0 149 1 155 20 158 17 2 21 -3 20
-24 0 -22 6 -29 30 -36 72 -21 277 18 455 86 134 52 244 76 398 86 74 4 136
11 139 14 4 3 53 6 109 6 l103 0 5 -42z m-1124 -73 c24 -14 23 -14 -27 -15
-51 0 -72 14 -35 23 29 8 36 7 62 -8z"/>
<path d="M2315 2392 c-62 -22 -239 -118 -261 -143 -20 -22 -12 -49 15 -49 11
0 60 23 108 52 48 29 120 64 158 78 61 22 70 29 70 50 0 32 -24 35 -90 12z"/>
<path d="M1404 2216 c-16 -42 25 -56 232 -77 120 -12 154 -5 154 30 0 24 -19
31 -83 31 -29 1 -83 5 -122 10 -175 24 -174 24 -181 6z"/>
<path d="M1905 1661 c-48 -5 -61 -10 -63 -25 -6 -29 16 -36 125 -36 113 0 133
4 133 29 0 41 -39 47 -195 32z"/>
<path d="M2704 1105 c-8 -21 10 -41 67 -72 27 -14 49 -29 49 -33 0 -16 -308
-192 -445 -254 -296 -135 -433 -174 -621 -178 -31 0 -348 155 -408 200 -68 51
-72 53 -90 46 -45 -17 14 -85 130 -150 112 -63 577 -274 704 -320 335 -122
411 -137 677 -135 128 1 204 -3 260 -14 127 -25 123 -21 123 -115 l0 -80 36 0
36 0 -3 72 c-1 40 1 86 6 101 5 19 3 33 -7 45 -8 9 -22 67 -32 128 -62 403
-168 615 -368 737 -65 39 -105 47 -114 22z m232 -217 c82 -109 126 -230 173
-478 28 -150 29 -160 20 -166 -5 -2 -35 2 -68 11 -43 11 -111 15 -254 15 -254
0 -362 18 -594 99 -209 73 -345 130 -337 142 3 5 25 9 49 9 123 0 542 178 810
343 77 48 143 87 147 87 3 0 28 -28 54 -62z"/>
<path d="M1394 1050 c-103 -54 -186 -121 -319 -254 -191 -192 -306 -357 -475
-678 l-62 -118 35 0 c35 0 36 0 128 168 51 92 128 219 171 282 151 226 393
462 558 545 56 28 71 45 59 66 -13 26 -27 24 -95 -11z"/>
</g>
</svg>
