<?xml version="1.0" standalone="no"?>
<!DOCTYPE svg PUBLIC "-//W3C//DTD SVG 20010904//EN"
 "http://www.w3.org/TR/2001/REC-SVG-20010904/DTD/svg10.dtd">
<svg version="1.0" xmlns="http://www.w3.org/2000/svg"
 width="48.000000pt" height="50.000000pt" viewBox="0 0 48.000000 50.000000"
 preserveAspectRatio="xMidYMid meet">

<g transform="translate(0.000000,50.000000) scale(0.100000,-0.100000)"
fill="#000000" stroke="none">
<path d="M189 417 c-89 -33 -131 -91 -131 -179 2 -151 193 -236 308 -136 48
42 64 77 64 141 0 123 -128 215 -241 174z m27 -141 c15 -12 17 -18 8 -33 -6
-10 -21 -19 -33 -21 -13 -2 -21 -11 -21 -23 0 -10 -4 -19 -10 -19 -5 0 -10 25
-10 55 0 51 2 55 23 55 13 0 32 -6 43 -14z m93 -8 l13 -21 19 24 c22 29 25 18
4 -15 -13 -20 -13 -25 0 -42 21 -28 17 -43 -5 -16 -19 23 -19 23 -30 2 -6 -11
-15 -20 -21 -20 -5 0 -2 12 7 26 16 24 16 27 0 55 -20 33 -8 40 13 7z m-42
-44 c-3 -3 -12 -4 -19 -1 -8 3 -5 6 6 6 11 1 17 -2 13 -5z"/>
<path d="M170 250 c0 -23 22 -27 39 -7 13 16 5 27 -21 27 -11 0 -18 -7 -18
-20z"/>
</g>
</svg>
