<?xml version="1.0" standalone="no"?>
<!DOCTYPE svg PUBLIC "-//W3C//DTD SVG 20010904//EN"
 "http://www.w3.org/TR/2001/REC-SVG-20010904/DTD/svg10.dtd">
<svg version="1.0" xmlns="http://www.w3.org/2000/svg"
 width="428.000000pt" height="428.000000pt" viewBox="0 0 428.000000 428.000000"
 preserveAspectRatio="xMidYMid meet">

<g transform="translate(0.000000,428.000000) scale(0.100000,-0.100000)"
fill="#000000" stroke="none">
<path d="M0 2140 l0 -2140 2140 0 2140 0 0 2140 0 2140 -2140 0 -2140 0 0
-2140z m1435 764 c158 -28 273 -110 346 -245 18 -35 39 -148 39 -213 0 -212
-78 -340 -256 -418 -87 -39 -158 -47 -436 -47 l-218 -1 0 -305 0 -305 -105 0
-105 0 0 768 c0 423 3 772 7 775 3 4 148 7 322 7 246 0 336 -4 406 -16z m1420
-31 c43 -68 65 -104 107 -176 21 -35 44 -70 53 -77 8 -7 15 -16 15 -21 0 -9
55 -99 101 -166 16 -23 29 -45 29 -50 0 -4 9 -19 19 -33 l19 -24 19 33 c10 18
27 45 38 60 12 14 47 69 78 121 32 52 75 122 97 155 22 33 45 71 52 85 7 14
31 51 52 83 l39 57 119 0 c66 0 118 -3 116 -7 -1 -5 -30 -48 -62 -98 -114
-173 -131 -200 -136 -210 -3 -5 -22 -37 -44 -70 -21 -33 -48 -76 -60 -95 -13
-19 -53 -81 -89 -136 -37 -56 -67 -105 -67 -110 0 -4 -7 -15 -16 -25 -14 -16
-14 -20 3 -46 61 -90 82 -122 103 -160 13 -24 27 -43 32 -43 4 0 8 -5 8 -11 0
-7 28 -55 63 -108 35 -53 81 -123 101 -156 21 -33 51 -79 67 -103 16 -23 29
-45 29 -48 0 -3 11 -20 24 -37 13 -18 31 -44 41 -59 l17 -28 -124 0 -125 0
-23 45 c-13 24 -31 52 -41 61 -11 10 -19 21 -19 26 0 4 -17 34 -37 66 -20 31
-51 80 -68 107 -18 28 -41 63 -51 79 -10 16 -23 36 -29 45 -5 9 -26 41 -47 73
-21 31 -38 61 -38 66 0 5 -6 15 -14 21 -11 9 -20 1 -45 -41 -17 -29 -51 -84
-76 -123 -25 -38 -54 -86 -64 -106 -11 -19 -27 -41 -35 -48 -9 -8 -16 -17 -16
-22 0 -5 -15 -33 -34 -62 -18 -28 -53 -82 -77 -119 l-43 -68 -118 0 c-65 0
-118 2 -118 5 0 6 34 59 137 216 35 53 63 101 63 106 0 6 6 16 14 22 7 6 31
41 52 76 20 36 41 65 46 65 4 0 8 5 8 11 0 11 59 106 98 159 38 51 73 122 67
133 -20 38 -109 176 -134 208 -12 15 -24 35 -28 45 -3 11 -22 39 -40 63 -18
24 -33 49 -33 56 0 7 -7 18 -15 25 -7 6 -29 37 -47 68 -18 31 -42 70 -53 87
-11 17 -34 53 -52 81 -17 27 -41 61 -52 76 -36 45 -30 48 97 48 l117 -1 30
-46z m-397 -845 l-3 -83 -255 0 -255 0 -3 83 -3 82 261 0 261 0 -3 -82z"/>
<path d="M912 2448 l3 -303 220 0 c188 0 230 3 285 20 81 23 105 42 153 113
37 56 37 57 37 160 0 115 -7 136 -71 213 -24 29 -58 55 -91 70 -50 23 -65 24
-296 27 l-242 3 2 -303z"/>
</g>
</svg>
