<svg version="1.0" xmlns="http://www.w3.org/2000/svg"
 width="92.000000pt" height="88.000000pt" viewBox="0 0 92.000000 88.000000"
 preserveAspectRatio="xMidYMid meet">

<g transform="translate(0.000000,88.000000) scale(0.100000,-0.100000)"
fill="#000000" stroke="none">
<path d="M120 421 c0 -184 1 -191 20 -191 18 0 20 7 20 75 l0 75 66 0 c109 0
154 34 154 116 0 76 -41 103 -171 111 l-89 6 0 -192z m173 138 c24 -11 47 -47
47 -73 0 -7 -9 -25 -21 -40 -19 -24 -27 -26 -90 -26 l-69 0 0 75 0 75 55 0
c30 0 65 -5 78 -11z"/>
<path d="M580 600 c0 -6 25 -48 55 -95 l54 -85 -60 -92 -60 -93 28 -3 c15 -2
29 0 30 5 8 20 84 133 91 133 4 0 26 -32 50 -70 34 -56 48 -70 68 -70 13 0 24
2 24 5 0 3 -25 44 -55 90 -30 47 -55 90 -55 95 0 5 25 48 55 95 30 46 55 87
55 90 0 3 -11 5 -24 5 -20 0 -34 -15 -72 -75 l-47 -76 -48 76 c-34 53 -54 75
-69 75 -11 0 -20 -5 -20 -10z"/>
<path d="M410 390 c0 -18 7 -20 60 -20 53 0 60 2 60 20 0 18 -7 20 -60 20 -53
0 -60 -2 -60 -20z"/>
</g>
</svg>
